<?xml version="1.0" encoding="UTF-8"?>
<svg id="_Слой_2" data-name="Слой 2" xmlns="http://www.w3.org/2000/svg" xmlns:xlink="http://www.w3.org/1999/xlink" viewBox="0 0 473.65 104.69">
  <defs>
    <style>
      .cls-1 {
        fill: #f3f7ff;
      }

      .cls-2 {
        fill: url(#_Безымянный_градиент_61);
      }
    </style>
    <linearGradient id="_Безымянный_градиент_61" data-name="Безымянный градиент 61" x1="0" y1="51.73" x2="103.45" y2="51.73" gradientUnits="userSpaceOnUse">
      <stop offset="0" stop-color="#37a0ef"/>
      <stop offset="1" stop-color="#8cdeff"/>
    </linearGradient>
  </defs>
  <g id="Layer_1" data-name="Layer 1">
    <g>
      <path class="cls-1" d="M134.16,83.48v-10.61l31.4-31.3v-1.59h-29.81v-14.85h55.06v11.67l-30.66,30.34v1.49h30.66v14.85h-56.65Z"/>
      <path class="cls-1" d="M253.41,60.14h-45.51c1.2,3.11,3.18,5.57,5.94,7.37,2.76,1.8,5.9,2.71,9.44,2.71,1.62,0,3.18-.14,4.67-.42,1.48-.28,2.81-.67,3.98-1.17,1.17-.49,2.1-1.06,2.81-1.7.71-.64,1.1-1.31,1.17-2.02h17.08c-1.06,2.97-2.53,5.68-4.4,8.12-1.88,2.44-4.1,4.51-6.68,6.21-2.58,1.7-5.48,3.01-8.7,3.93s-6.67,1.38-10.34,1.38c-4.6,0-8.82-.74-12.68-2.23s-7.18-3.55-9.97-6.21c-2.79-2.65-4.97-5.83-6.52-9.55-1.56-3.71-2.33-7.8-2.33-12.25s.78-8.52,2.33-12.2c1.55-3.68,3.73-6.86,6.52-9.55,2.79-2.69,6.12-4.77,9.97-6.26s8.08-2.23,12.68-2.23c4.31,0,8.33.78,12.04,2.33,3.71,1.56,6.95,3.7,9.71,6.42,2.76,2.72,4.91,5.94,6.47,9.65,1.55,3.71,2.33,7.73,2.33,12.04v5.62ZM238.02,47.3c-1.91-3.18-4.02-5.46-6.31-6.84-2.3-1.38-5.18-2.07-8.65-2.07s-6.53.8-9.18,2.39c-2.65,1.59-4.58,3.8-5.78,6.63l29.92-.11Z"/>
      <path class="cls-1" d="M257.12,41.04h-5.3v-15.91h17.5v7.43h1.59c2.26-2.69,5.11-4.77,8.54-6.26,3.43-1.49,7.05-2.23,10.88-2.23,3.32,0,6.4.69,9.23,2.07,2.83,1.38,5.29,3.29,7.37,5.73,2.09,2.44,3.71,5.3,4.88,8.59,1.17,3.29,1.75,6.88,1.75,10.77v32.25h-14.85v-27.9c0-5.59-1.13-9.85-3.39-12.78-2.27-2.93-5.62-4.4-10.08-4.4s-7.52,1.49-9.81,4.46c-2.3,2.97-3.45,7.21-3.45,12.73v27.9h-14.85v-42.44Z"/>
      <path class="cls-1" d="M348.57,91.54c-1.13,2.69-2.19,4.88-3.18,6.58-.99,1.7-2.05,3.02-3.18,3.98s-2.39,1.63-3.77,2.02c-1.38.39-3.02.58-4.93.58h-17.82v-13.79h16.97l3.18-7.53-24.4-58.24h16.12l15.49,37.13h1.59l15.6-37.13h16.02l-27.69,66.41Z"/>
      <path class="cls-1" d="M415.41,69.68v13.79h-18.67c-4.67,0-7.97-.92-9.92-2.76-1.95-1.84-2.92-4.95-2.92-9.34v-33.52h-8.7v-12.73h8.7V4.01h14.85v21.11h15.49v12.73h-15.49v31.83h16.66Z"/>
      <path class="cls-1" d="M417,3.91h14.85v26.95h1.7c4.67-4.53,10.29-6.79,16.87-6.79,3.32,0,6.4.69,9.23,2.07,2.83,1.38,5.29,3.29,7.37,5.73,2.08,2.44,3.71,5.3,4.88,8.59,1.17,3.29,1.75,6.88,1.75,10.77v32.25h-14.85v-27.9c0-5.59-1.13-9.85-3.39-12.78-2.27-2.93-5.62-4.4-10.08-4.4s-7.64,1.49-9.97,4.46c-2.33,2.97-3.5,7.21-3.5,12.73v27.9h-14.85V3.91Z"/>
      <path class="cls-2" d="M102.22,53.49l-26.98,9.98,7.9,17.17c.73,1.59-.91,3.22-2.5,2.49l-17.16-7.89-9.99,26.98c-.6,1.64-2.92,1.64-3.53,0l-9.98-26.98-17.17,7.89c-1.59.73-3.23-.9-2.5-2.49l7.9-17.17L1.23,53.49c-1.64-.61-1.64-2.93,0-3.53l26.97-9.99-7.89-17.16c-.73-1.59.91-3.23,2.5-2.5l17.17,7.9L49.96,1.23c.61-1.64,2.93-1.64,3.53,0l9.99,26.97,17.16-7.89c1.59-.73,3.23.91,2.5,2.5l-7.89,17.16,26.97,9.99c1.64.6,1.64,2.92,0,3.53Z"/>
    </g>
  </g>
</svg>
