<?xml version="1.0" encoding="UTF-8"?>
<svg id="_Слой_2" data-name="Слой 2" xmlns="http://www.w3.org/2000/svg" xmlns:xlink="http://www.w3.org/1999/xlink" viewBox="0 0 474.71 474.71">
  <defs>
    <style>
      .cls-1 {
        fill: url(#_Безымянный_градиент_52);
      }
    </style>
    <linearGradient id="_Безымянный_градиент_52" data-name="Безымянный градиент 52" x1="0" y1="237.35" x2="474.71" y2="237.35" gradientUnits="userSpaceOnUse">
      <stop offset="0" stop-color="#37a0ef"/>
      <stop offset="1" stop-color="#8cdeff"/>
    </linearGradient>
  </defs>
  <g id="Layer_1" data-name="Layer 1">
    <path class="cls-1" d="M469.07,245.45l-123.81,45.8,36.25,78.79c3.35,7.3-4.18,14.78-11.47,11.43l-78.74-36.21-45.84,123.81c-2.75,7.53-13.4,7.53-16.2,0l-45.8-123.81-78.79,36.21c-7.3,3.35-14.82-4.13-11.47-11.43l36.25-78.79L5.64,245.45c-7.53-2.8-7.53-13.44,0-16.2l123.76-45.84-36.21-78.74c-3.35-7.3,4.18-14.82,11.47-11.47l78.79,36.25L229.26,5.64c2.8-7.53,13.44-7.53,16.2,0l45.84,123.76,78.74-36.21c7.3-3.35,14.82,4.18,11.47,11.47l-36.21,78.74,123.76,45.84c7.53,2.75,7.53,13.4,0,16.2Z"/>
  </g>
</svg>